HIERARCHY
ROOT hips
{
  OFFSET -0.00735851563513279 12.18665635585785 0.12248523347079754
  CHANNELS 6 Xposition Yposition Zposition Yrotation Xrotation Zrotation
  JOINT spine
  {
    OFFSET 1.0244548320770264e-7 0.5955291986465454 0
    CHANNELS 3 Yrotation Xrotation Zrotation
    JOINT chest
    {
      OFFSET 0 1.2719063864449713 0
      CHANNELS 3 Yrotation Xrotation Zrotation
      JOINT upperChest
      {
        OFFSET 0 1.490802666915459 0
        CHANNELS 3 Yrotation Xrotation Zrotation
        JOINT neck
        {
          OFFSET 0 1.3131953345263365 0
          CHANNELS 3 Yrotation Xrotation Zrotation
          JOINT head
          {
            OFFSET 0 0.8653679716847534 0
            CHANNELS 3 Yrotation Xrotation Zrotation
            JOINT leftEye
            {
              OFFSET 0.20629723300226033 0.6721053123474121 0.3036841657012701
              CHANNELS 3 Yrotation Xrotation Zrotation
              End Site
              {
                OFFSET 0.20629723300226033 0.6721053123474121 0.3036841657012701
              }
            }
            JOINT rightEye
            {
              OFFSET -0.20629652100615203 0.6721066236495972 0.30368443205952644
              CHANNELS 3 Yrotation Xrotation Zrotation
              End Site
              {
                OFFSET -0.20629652100615203 0.6721066236495972 0.30368443205952644
              }
            }
          }
        }
        JOINT leftShoulder
        {
          OFFSET 0.24624172446783632 0.959903359413147 0
          CHANNELS 3 Yrotation Xrotation Zrotation
          JOINT leftUpperArm
          {
            OFFSET 0.9650355761446514 0 0
            CHANNELS 3 Yrotation Xrotation Zrotation
            JOINT leftLowerArm
            {
              OFFSET 2.4419134471639827 0 0
              CHANNELS 3 Yrotation Xrotation Zrotation
              JOINT leftHand
              {
                OFFSET 2.3874557408809456 0 0
                CHANNELS 3 Yrotation Xrotation Zrotation
                JOINT leftIndexProximal
                {
                  OFFSET 0.7029628753662109 0.06118142604827881 0.23586585000157356
                  CHANNELS 3 Yrotation Xrotation Zrotation
                  JOINT leftIndexIntermediate
                  {
                    OFFSET 0.36102771759033203 -0.001475214958190918 0.056637559086084366
                    CHANNELS 3 Yrotation Xrotation Zrotation
                    JOINT leftIndexDistal
                    {
                      OFFSET 0.22344785928726196 -0.007408857345581055 0.02531452476978302
                      CHANNELS 3 Yrotation Xrotation Zrotation
                      End Site
                      {
                        OFFSET 0.22344785928726196 -0.007408857345581055 0.02531452476978302
                      }
                    }
                  }
                }
                JOINT leftLittleProximal
                {
                  OFFSET 0.6958752870559692 0.034375786781311035 -0.29472956992685795
                  CHANNELS 3 Yrotation Xrotation Zrotation
                  JOINT leftLittleIntermediate
                  {
                    OFFSET 0.34538060426712036 -0.0030041933059692383 0.00024324655532836914
                    CHANNELS 3 Yrotation Xrotation Zrotation
                    JOINT leftLittleDistal
                    {
                      OFFSET 0.19865047931671143 0.00746917724609375 -0.010377676226198673
                      CHANNELS 3 Yrotation Xrotation Zrotation
                      End Site
                      {
                        OFFSET 0.19865047931671143 0.00746917724609375 -0.010377676226198673
                      }
                    }
                  }
                }
                JOINT leftMiddleProximal
                {
                  OFFSET 0.7272291779518127 0.09209799766540527 0.05257739871740341
                  CHANNELS 3 Yrotation Xrotation Zrotation
                  JOINT leftMiddleIntermediate
                  {
                    OFFSET 0.40590834617614746 -0.014838695526123047 0.026817932724952698
                    CHANNELS 3 Yrotation Xrotation Zrotation
                    JOINT leftMiddleDistal
                    {
                      OFFSET 0.2495119571685791 -0.026458144187927246 0.010310646146535873
                      CHANNELS 3 Yrotation Xrotation Zrotation
                      End Site
                      {
                        OFFSET 0.2495119571685791 -0.026458144187927246 0.010310646146535873
                      }
                    }
                  }
                }
                JOINT leftRingProximal
                {
                  OFFSET 0.7334893345832825 0.09136629104614258 -0.1205735495314002
                  CHANNELS 3 Yrotation Xrotation Zrotation
                  JOINT leftRingIntermediate
                  {
                    OFFSET 0.3775520920753479 -0.005917906761169434 0.001896639820188284
                    CHANNELS 3 Yrotation Xrotation Zrotation
                    JOINT leftRingDistal
                    {
                      OFFSET 0.2177620530128479 0.007703900337219238 0.0027355607599020004
                      CHANNELS 3 Yrotation Xrotation Zrotation
                      End Site
                      {
                        OFFSET 0.2177620530128479 0.007703900337219238 0.0027355607599020004
                      }
                    }
                  }
                }
                JOINT leftThumbProximal
                {
                  OFFSET 0.02235114574432373 -0.07603192329406738 0.1950724683701992
                  CHANNELS 3 Yrotation Xrotation Zrotation
                  JOINT leftThumbIntermediate
                  {
                    OFFSET 0.3551589846611023 -0.02970755100250244 0.36741212010383606
                    CHANNELS 3 Yrotation Xrotation Zrotation
                    JOINT leftThumbDistal
                    {
                      OFFSET 0.23456048965454102 -0.016631245613098145 0.2093813568353653
                      CHANNELS 3 Yrotation Xrotation Zrotation
                      End Site
                      {
                        OFFSET 0.23456048965454102 -0.016631245613098145 0.2093813568353653
                      }
                    }
                  }
                }
              }
            }
          }
        }
        JOINT rightShoulder
        {
          OFFSET -0.24624088185373694 0.9600239992141724 0
          CHANNELS 3 Yrotation Xrotation Zrotation
          JOINT rightUpperArm
          {
            OFFSET -0.9650300767908009 0 0
            CHANNELS 3 Yrotation Xrotation Zrotation
            JOINT rightLowerArm
            {
              OFFSET -2.4420125187833426 0 0
              CHANNELS 3 Yrotation Xrotation Zrotation
              JOINT rightHand
              {
                OFFSET -2.3874255620910265 0 0
                CHANNELS 3 Yrotation Xrotation Zrotation
                JOINT rightIndexProximal
                {
                  OFFSET -0.7029609084129333 0.06117355823516846 0.23587234504520893
                  CHANNELS 3 Yrotation Xrotation Zrotation
                  JOINT rightIndexIntermediate
                  {
                    OFFSET -0.3610270619392395 -0.0014804601669311523 0.05664427950978279
                    CHANNELS 3 Yrotation Xrotation Zrotation
                    JOINT rightIndexDistal
                    {
                      OFFSET -0.2234485149383545 -0.0074127912521362305 0.025317884981632233
                      CHANNELS 3 Yrotation Xrotation Zrotation
                      End Site
                      {
                        OFFSET -0.2234485149383545 -0.0074127912521362305 0.025317884981632233
                      }
                    }
                  }
                }
                JOINT rightLittleProximal
                {
                  OFFSET -0.6958779096603394 0.034366607666015625 -0.29472311586141586
                  CHANNELS 3 Yrotation Xrotation Zrotation
                  JOINT rightLittleIntermediate
                  {
                    OFFSET -0.3453786373138428 -0.003008127212524414 0.00025422871112823486
                    CHANNELS 3 Yrotation Xrotation Zrotation
                    JOINT rightLittleDistal
                    {
                      OFFSET -0.19865179061889648 0.00746917724609375 -0.010371447540819645
                      CHANNELS 3 Yrotation Xrotation Zrotation
                      End Site
                      {
                        OFFSET -0.19865179061889648 0.00746917724609375 -0.010371447540819645
                      }
                    }
                  }
                }
                JOINT rightMiddleProximal
                {
                  OFFSET -0.7272304892539978 0.09209012985229492 0.05258418060839176
                  CHANNELS 3 Yrotation Xrotation Zrotation
                  JOINT rightMiddleIntermediate
                  {
                    OFFSET -0.4059063792228699 -0.014843940734863281 0.026821313425898552
                    CHANNELS 3 Yrotation Xrotation Zrotation
                    JOINT rightMiddleDistal
                    {
                      OFFSET -0.24951326847076416 -0.026460766792297363 0.010313207283616066
                      CHANNELS 3 Yrotation Xrotation Zrotation
                      End Site
                      {
                        OFFSET -0.24951326847076416 -0.026460766792297363 0.010313207283616066
                      }
                    }
                  }
                }
                JOINT rightRingProximal
                {
                  OFFSET -0.7334906458854675 0.09135580062866211 -0.12056719791144133
                  CHANNELS 3 Yrotation Xrotation Zrotation
                  JOINT rightRingIntermediate
                  {
                    OFFSET -0.37755340337753296 -0.005923151969909668 0.0019026175141334534
                    CHANNELS 3 Yrotation Xrotation Zrotation
                    JOINT rightRingDistal
                    {
                      OFFSET -0.21775943040847778 0.007701277732849121 0.0027383523993194103
                      CHANNELS 3 Yrotation Xrotation Zrotation
                      End Site
                      {
                        OFFSET -0.21775943040847778 0.007701277732849121 0.0027383523993194103
                      }
                    }
                  }
                }
                JOINT rightThumbProximal
                {
                  OFFSET -0.022347867488861084 -0.07603061199188232 0.19507363624870777
                  CHANNELS 3 Yrotation Xrotation Zrotation
                  JOINT rightThumbIntermediate
                  {
                    OFFSET -0.3550455570220947 -0.029461026191711426 0.36754218488931656
                    CHANNELS 3 Yrotation Xrotation Zrotation
                    JOINT rightThumbDistal
                    {
                      OFFSET -0.23451131582260132 -0.016489624977111816 0.20944765955209732
                      CHANNELS 3 Yrotation Xrotation Zrotation
                      End Site
                      {
                        OFFSET -0.23451131582260132 -0.016489624977111816 0.20944765955209732
                      }
                    }
                  }
                }
              }
            }
          }
        }
      }
    }
  }
  JOINT leftUpperLeg
  {
    OFFSET 0.8483456987887621 -0.42556869983673096 0
    CHANNELS 3 Yrotation Xrotation Zrotation
    JOINT leftLowerLeg
    {
      OFFSET 0 -4.6702112872869534 0
      CHANNELS 3 Yrotation Xrotation Zrotation
      JOINT leftFoot
      {
        OFFSET -0.13096565008163452 -5.202569782733917 -0.2985280640423298
        CHANNELS 3 Yrotation Xrotation Zrotation
        JOINT leftToes
        {
          OFFSET 0.01423943042755127 -0.7568342834711075 1.213271364569664
          CHANNELS 3 Yrotation Xrotation Zrotation
          End Site
          {
            OFFSET 0.01423943042755127 -0.7568342834711075 1.213271364569664
          }
        }
      }
    }
  }
  JOINT rightUpperLeg
  {
    OFFSET -0.8483468051999807 -0.42556607723236084 0
    CHANNELS 3 Yrotation Xrotation Zrotation
    JOINT rightLowerLeg
    {
      OFFSET 0 -4.670219469177788 0
      CHANNELS 3 Yrotation Xrotation Zrotation
      JOINT rightFoot
      {
        OFFSET 0.13097601756453514 -5.202573716640472 -0.29853164963424206
        CHANNELS 3 Yrotation Xrotation Zrotation
        JOINT rightToes
        {
          OFFSET -0.014232628047466278 -0.7568355947732925 1.213272675871849
          CHANNELS 3 Yrotation Xrotation Zrotation
          End Site
          {
            OFFSET -0.014232628047466278 -0.7568355947732925 1.213272675871849
          }
        }
      }
    }
  }
}
MOTION
Frames: 4
Frame Time: 0.03333333333333333
-1.426822741417127 0.035331266985702284 7.523248355969823 54.53464743003071 4.818529365056366 -0.16152660115264975 -3.934451683454486 6.491501984528477 -11.325199642085828 -0.8701078384760017 0.42682740494957816 -2.036681779205044 0 0 0 -20.317979967840166 31.74074071808706 -15.726595140496196 -21.664396806706375 14.160264445140744 4.5766375348834325 0 0 0 0 0 0 -8.805302883527949 2.6003110075752334 -13.245124917500815 2.56215701293919 6.340158875500548 -60.35539333446042 -47.29709828697413 8.336700809415394 20.055469367423342 -2.715550542276835 12.793776804651644 -4.448203052501204 -3.6362923013974475 -2.244307238773714 -19.1331992307828 -7.100467301778522 3.6208598726743304 1.8225833510877834 0 0 0 37.98132903795241 3.8571197109621314 -18.213860060837895 -3.9815054993060692 -0.31200055448698594 -2.714025371509236 0 0 0 2.929467282294818 -1.2317410530999424 -10.132729622092112 -1.2464576280603077 0.3777279920650976 3.9817349636119856 0 0 0 18.72395458401292 0.4630544605552466 -17.775593849694907 -4.013708396721781 0.9952396653076988 -3.126586100320959 0 0 0 18.2690869785071 2.1086426759862387 -5.5655315414763 3.7170591655395477 8.635662614087984 -20.580556916942477 0 0 0 8.805302883527949 2.6003110075752334 13.245124917500815 -7.790065090847173 -5.51363402243843 9.529170621088488 87.34335058375093 28.136192114926722 -31.941491485631023 -2.785462490829496 -28.94276873051047 -8.663122137404603 3.635273235640843 -2.2440197234261947 19.13241602264739 7.10074700779512 3.620750798807948 -1.822804381112586 0 0 0 -37.98306068627806 3.857696460990191 18.21308707412888 3.9815144424260245 -0.31200164840068895 2.714676042683495 0 0 0 -2.929954418445625 -1.2316699600172374 10.13199307278958 1.2463844327030156 0.3777063270880474 -3.9815534479925643 0 0 0 -18.724814804065176 0.4633359482525949 17.77479459089185 4.013885012324447 0.9952023070750878 3.126698833958267 0 0 0 -18.28773932428485 2.122714774290576 5.592006425941941 -3.7121664153589 8.636710981961548 20.57778314378226 0 0 0 3.926149837157932 -16.413385431077188 -1.9191881366087455 -0.19507318587608816 11.22338143469281 -0.9826419367823669 10.414748014775999 -10.133214426362144 1.3807268164510687 0 0 0 4.068203478532194 -18.85306773225193 -10.416919008202786 0.49046120603868304 26.349307940689144 1.0413560565181472 -27.6218988092667 -11.588781426297842 -3.88575515383959 0 0 0
-1.374471514677347 0.012551897481762381 7.4949420192619804 54.77248185755518 4.476496717719409 -0.9423072003664159 -3.697816654798919 6.939518090553688 -10.39656126157638 -0.7687753903841102 0.3956373961280428 -2.548310604888462 0 0 0 -20.550785014275068 31.348744079314145 -16.28532092406862 -21.568792141487805 14.741620407948037 5.018327158706976 0 0 0 0 0 0 -8.805302883527949 2.6003110075752334 -13.245124917500815 1.4198934859349228 5.217061827707982 -59.507880065566084 -48.807845932117175 8.904329323354123 20.719716079198978 -2.8389596831862827 13.267104626193948 -4.630103174030017 -3.6362923013974475 -2.244307238773714 -19.1331992307828 -7.100467301778522 3.6208598726743304 1.8225833510877834 0 0 0 37.98132903795241 3.8571197109621314 -18.213860060837895 -3.9815054993060692 -0.31200055448698594 -2.714025371509236 0 0 0 2.929467282294818 -1.2317410530999424 -10.132729622092112 -1.2464576280603077 0.3777279920650976 3.9817349636119856 0 0 0 18.72395458401292 0.4630544605552466 -17.775593849694907 -4.013708396721781 0.9952396653076988 -3.126586100320959 0 0 0 18.2690869785071 2.1086426759862387 -5.5655315414763 3.7170591655395477 8.635662614087984 -20.580556916942477 0 0 0 8.805302883527949 2.6003110075752334 13.245124917500815 -7.063453074123373 0.5115219031762647 6.862670810826345 86.7115821313819 27.783147824755336 -31.869602364500032 -2.8180631606826965 -33.352809318098075 -10.038348015256702 3.635273235640843 -2.2440197234261947 19.13241602264739 7.10074700779512 3.620750798807948 -1.822804381112586 0 0 0 -37.98306068627806 3.857696460990191 18.21308707412888 3.9815144424260245 -0.31200164840068895 2.714676042683495 0 0 0 -2.929954418445625 -1.2316699600172374 10.13199307278958 1.2463844327030156 0.3777063270880474 -3.9815534479925643 0 0 0 -18.724814804065176 0.46333589488999716 17.77479459089185 4.013885012324447 0.9952023070750878 3.126698833958267 0 0 0 -18.28773932428485 2.122714774290576 5.592006425941941 -3.7121664153589 8.636710981961548 20.57778314378226 0 0 0 4.652875606139095 -16.5078385962556 -1.4616469387680437 -0.20814689764037228 12.152253474581117 -0.9937782372635018 8.942221050171485 -10.349561067819767 1.2197473292179737 0 0 0 4.230104678103145 -20.7879898478882 -10.035251991246435 0.47919682480358394 29.59805429851413 1.0142944851012297 -28.478823810378113 -8.948020132970823 -4.054853567152518 0 0 0
-1.3207256326618146 0.016219324317996376 7.461366984845743 55.221330602813836 4.004698925033156 -0.9857125602195715 -3.7714380506740306 7.75282384084607 -10.654750888825584 -0.7686382649415255 0.3089437598310221 -2.46323996443267 0 0 0 -19.70512724266307 29.07061372478165 -15.3634790440514 -22.173768188968275 17.27375630179082 1.9768499388823413 0 0 0 0 0 0 -8.805302883527949 2.6003110075752334 -13.245124917500815 -0.4055170635353534 4.909643530149806 -58.32438708408546 -50.46710221559711 9.549167579642347 21.43493523651194 -2.459874889088319 11.789633393872483 -4.0673015293794945 -3.6362923013974475 -2.244307238773714 -19.1331992307828 -7.100467301778522 3.6208598726743304 1.8225833510877834 0 0 0 37.98132903795241 3.8571197109621314 -18.213860060837895 -3.9815054993060692 -0.31200055448698594 -2.714025371509236 0 0 0 2.929467282294818 -1.2317410530999424 -10.132729622092112 -1.2464576280603077 0.3777279920650976 3.9817349636119856 0 0 0 18.72395458401292 0.4630544605552466 -17.775593849694907 -4.013708396721781 0.9952396653076988 -3.126586100320959 0 0 0 18.2690869785071 2.1086426759862387 -5.5655315414763 3.7170591655395477 8.635662614087984 -20.580556916942477 0 0 0 8.805302883527949 2.6003110075752334 13.245124917500815 -7.206344027740068 0.0003742538195665923 5.4395004373799845 85.63450882089337 27.180942666622382 -31.73702645403108 -2.7786945435445145 -28.633341235277637 -8.56874372900538 3.635273235640843 -2.2440197234261947 19.13241602264739 7.10074700779512 3.620750798807948 -1.822804381112586 0 0 0 -37.98306068627806 3.857696460990191 18.21308707412888 3.9815144424260245 -0.31200164840068895 2.714676042683495 0 0 0 -2.929954418445625 -1.2316699600172374 10.13199307278958 1.2463844327030156 0.3777063270880474 -3.9815534479925643 0 0 0 -18.724814804065176 0.46333589488999716 17.77479459089185 4.013885012324447 0.9952023070750878 3.126698833958267 0 0 0 -18.28773932428485 2.122714774290576 5.592006425941941 -3.7121664153589 8.636710981961548 20.57778314378226 0 0 0 4.597523251781492 -15.918577694760408 -1.7215018825642159 -0.21310304707529207 12.161021991177469 -1.0030947213500325 8.523806288026677 -10.538849844435703 1.1451391356093783 0 0 0 5.274708410587511 -22.705780452772945 -10.375480658063196 0.47643136632562255 33.042360409990685 0.9883169807790827 -29.669801916391112 -6.841840933445304 -4.286185645614564 0 0 0
-1.2559129027637006 -0.010834405336624857 7.4039149355696505 55.83204123221164 3.8992979461671116 -0.13827752467106144 -3.991019331769799 7.900609102393719 -11.873041839687694 -0.8040636934879329 0.2520876476113471 -2.5033184634091112 0 0 0 -20.090262372197987 30.28850256518575 -15.805282175461649 -21.938639617827295 14.878910917849241 3.13122989215031 0 0 0 0 0 0 -8.805302883527949 2.6003110075752334 -13.245124917500815 -2.2884015202964854 4.705592490916547 -56.79312384581039 -51.5514508926967 9.982789059734476 21.893856885183208 -2.121813865238866 10.410385535000014 -3.554634990355944 -3.6362923013974475 -2.244307238773714 -19.1331992307828 -7.100467301778522 3.6208598726743304 1.8225833510877834 0 0 0 37.98132903795241 3.8571197109621314 -18.213860060837895 -3.9815054993060692 -0.31200055448698594 -2.714025371509236 0 0 0 2.929467282294818 -1.2317410530999424 -10.132729622092112 -1.2464576280603077 0.3777279920650976 3.9817349636119856 0 0 0 18.72395458401292 0.4630544605552466 -17.775593849694907 -4.013708396721781 0.9952396653076988 -3.126586100320959 0 0 0 18.2690869785071 2.1086426759862387 -5.5655315414763 3.7170591655395477 8.635662614087984 -20.580556916942477 0 0 0 8.805302883527949 2.6003110075752334 13.245124917500815 -7.190361906222549 -0.28406542295360504 4.144722360622618 85.15481402222923 26.912780197195698 -31.674006009473953 -2.79838686811407 -34.95233747673045 -10.554092040126326 3.635273235640843 -2.2440197234261947 19.13241602264739 7.10074700779512 3.620750798807948 -1.822804381112586 0 0 0 -37.98306068627806 3.857696460990191 18.21308707412888 3.9815144424260245 -0.31200164840068895 2.714676042683495 0 0 0 -2.929954418445625 -1.2316699600172374 10.13199307278958 1.2463844327030156 0.3777063270880474 -3.9815534479925643 0 0 0 -18.724814804065176 0.46333589488999716 17.77479459089185 4.013885012324447 0.9952023070750878 3.126698833958267 0 0 0 -18.28773932428485 2.122714774290576 5.592006425941941 -3.7121664153589 8.636710981961548 20.57778314378226 0 0 0 4.020378118770308 -15.690946657512336 -3.096127826795806 -0.2265058464156468 12.315079084470984 -1.0155573939558273 8.861200229961232 -10.739880233578475 1.142436214946459 0 0 0 5.7435140260457045 -25.219725584336285 -12.014219621803194 0.32354463900432145 36.50242002473444 0.8318563207880346 -26.90988963482582 1.8534754500529045 -3.9865672268439076 0 0 0
